<svg width="16" height="16" viewBox="0 0 16 16" fill="none" xmlns="http://www.w3.org/2000/svg">
    <path d="M13.5 7V4" stroke="black" stroke-linecap="round" stroke-linejoin="round"/>
    <path d="M15 5.5H12" stroke="black" stroke-linecap="round" stroke-linejoin="round"/>
    <path d="M10.5 1.5V3.5" stroke="black" stroke-linecap="round" stroke-linejoin="round"/>
    <path d="M11.5 2.5H9.5" stroke="black" stroke-linecap="round" stroke-linejoin="round"/>
    <path d="M13.5437 9.53751C12.562 9.81279 11.5247 9.82181 10.5384 9.56365C9.55213 9.30549 8.65232 8.78945 7.9314 8.06853C7.21048 7.34761 6.69444 6.44779 6.43628 5.46149C6.17812 4.47518 6.18714 3.43793 6.46242 2.45626C5.49458 2.72564 4.61421 3.2439 3.90901 3.95941C3.2038 4.67491 2.69836 5.5627 2.44303 6.53434C2.18771 7.50598 2.19141 8.52756 2.45377 9.49732C2.71613 10.4671 3.22799 11.3512 3.93837 12.0616C4.64875 12.7719 5.53285 13.2838 6.50261 13.5462C7.47237 13.8085 8.49395 13.8122 9.46559 13.5569C10.4372 13.3016 11.325 12.7961 12.0405 12.0909C12.756 11.3857 13.2743 10.5053 13.5437 9.53751Z" stroke="black" stroke-linecap="round" stroke-linejoin="round"/>
    </svg>
    